<svg width="67" height="90" viewBox="0 0 57 70" fill="none" xmlns="http://www.w3.org/2000/svg">
<path d="M0 39C0 27.9543 8.95431 19 20 19H37C48.0457 19 57 27.9543 57 39V50C57 61.0457 48.0457 70 37 70H20C8.9543 70 0 61.0457 0 50V39Z" fill="#D9D9D9"/>
<ellipse cx="28.5" cy="26" rx="21.5" ry="26" fill="#D9D9D9"/>
<path d="M43 25C42.8458 22.0732 35.5415 22.0732 27.5333 22.0732C19.5252 22.0732 14.1542 22.0732 14 25C14 13.9543 20.4919 5 28.5 5C36.5081 5 43 13.9543 43 25Z" fill="#B57F93"/>
<path d="M14.1381 22H42.7863L43 25H14L14.1381 22Z" fill="#B57F93"/>
<path d="M32.8302 46.5C32.8302 53.1713 33.3395 56.3108 28.246 55.9183C22.1337 56.7032 23.1524 51.7016 23.1524 46.5C23.1524 41.2984 21.6243 36.2968 28.246 37.0817C34.3583 36.2968 32.8302 41.2984 32.8302 46.5Z" fill="#B57F93"/>
</svg>
